<?xml version="1.0" encoding="UTF-8"?>
<svg xmlns="http://www.w3.org/2000/svg" xmlns:xlink="http://www.w3.org/1999/xlink" width="188px" height="120px" viewBox="0 0 188 120" version="1.1">
  <title>לקוחות/סטארטאפים/ sensos</title>
  <g id="לקוחות/סטארטאפים/-sensos" stroke="none" stroke-width="1" fill="none" fill-rule="evenodd">
    <g id="Group-37122" transform="translate(18.000000, 39.000000)" fill="#1D1D1B" fill-rule="nonzero">
      <path d="M45,25.5963192 L45,24.2970411 L46.9442936,24.2970411 C47.430367,25.4664023 48.6457444,26.1810542 49.9654744,26.0511373 C51.4236946,26.0511373 52.500194,25.3364853 52.500194,24.1021657 C52.500194,23.0627215 51.7708899,22.4780227 50.1737916,22.0882357 L49.0278532,21.8283293 C46.4582202,21.1786721 45.1388781,19.9443524 45.1388781,17.8979432 C45.1388781,15.4617468 47.1180852,14 50,14 C52.4307549,14 53.9584142,14.9095273 54.4444875,16.3387586 L54.4444875,17.6381456 L52.500194,17.6381456 C52.2224377,16.696139 51.4586081,15.9814871 49.8960354,15.9814871 C48.3334626,15.9814871 47.6041586,16.7610975 47.6041586,17.7355833 C47.6041586,18.7100691 48.2985492,19.1972213 49.7567693,19.5870083 L51.1459384,19.9443887 C53.6461324,20.5940459 55,21.8932514 55,24.0371347 C55,26.473331 52.9513539,28 49.9654744,28 C47.3264024,28 45.6594771,26.8631181 45.0694391,25.5638037" id="Path"></path>
      <polygon id="Path" points="65 14 73 14 73 16.0765631 67.3739498 16.0765631 67.3739498 19.7942157 72.4146873 19.7942157 72.4146873 21.8038001 67.3739498 21.8038001 67.3739498 25.8899476 73 25.8899476 73 28 65 28"></polygon>
      <polygon id="Path" points="83 14 85.259923 14 91.740077 23.9138525 91.740077 14 94 14 94 28 91.740077 28 85.259923 18.22003 85.259923 28 83 28"></polygon>
      <path d="M103,25.5907298 L103,24.2884305 L104.95103,24.2884305 C105.438787,25.427956 106.658375,26.1442698 107.947643,26.0466055 C109.410915,26.0466055 110.491144,25.3302918 110.491144,24.0930656 C110.491144,23.0512042 109.759703,22.4651823 108.156682,22.0744888 L107.041808,21.8465691 C104.463272,21.1954013 103.139359,19.9582114 103.139359,17.9070436 C103.139359,15.4651823 105.125423,14 108.017323,14 C110.456499,14 111.989451,14.9116423 112.477208,16.344197 L112.477208,17.6465328 L110.526179,17.6465328 C110.24746,16.7023357 109.480595,15.9861311 107.912609,15.9861311 C106.345011,15.9861311 105.613181,16.7674452 105.613181,17.744197 C105.613181,18.7209488 106.309977,19.2093429 107.773249,19.6000364 L109.167231,19.9581387 C111.641053,20.6093066 113,21.9116423 113,24.0604744 C113,26.5023721 110.944256,28 107.947643,28 C105.299428,28 103.627117,26.8604744 103,25.5581387" id="Path"></path>
      <path d="M120,20.9513357 C120,16.9234861 122.800076,14 127.000191,14 C131.199924,14 134,16.9234861 134,20.9513357 C134,24.9791854 131.165972,28 127.000191,28 C122.834028,28 120,25.0441436 120,20.9513357 Z M131.439113,20.9513357 C131.439113,18.0604014 129.697648,16.0139248 126.965857,16.0139248 C124.234066,16.0139248 122.492602,18.0604014 122.492602,20.9513357 C122.492602,23.8423064 124.234066,25.9861115 126.965857,25.9861115 C129.697648,25.9861115 131.439113,23.9072646 131.439113,20.9513357 Z" id="Shape"></path>
      <path d="M142,25.5963192 L142,24.2970411 L143.957889,24.2970411 C144.447361,25.433923 145.671237,26.148575 146.965038,26.0511373 C148.433845,26.0511373 149.517481,25.3364853 149.517481,24.1021657 C149.517481,23.0627215 148.783468,22.4780227 147.174812,22.0882357 L146.02086,21.8283293 C143.43365,21.1786721 142.104692,19.9443524 142.104692,17.8979432 C142.104692,15.4617468 144.097738,14 147.000195,14 C149.447557,14 151.021056,14.9095273 151.475761,16.3387586 L151.475761,17.6381456 L149.517481,17.6381456 C149.237783,16.696139 148.468612,15.9814871 146.895113,15.9814871 C145.321614,15.9814871 144.58721,16.7610975 144.58721,17.7355833 C144.58721,18.7100691 145.286847,19.1972213 146.755264,19.5870083 L148.118989,19.9443887 C150.636665,20.5940459 152,21.8932514 152,24.0371347 C152,26.473331 149.937029,28 146.930271,28 C144.272745,28 142.594164,26.8631181 142,25.5638037" id="Path"></path>
      <path d="M11.4176008,30.0559297 L20.3955564,24.8017857 L28.5603405,29.5664345 L11.4176008,39.5849721 L11.4176008,30.0232627 L11.4176008,30.0559297 Z M22.0220081,23.8554622 L29.3735482,19.547751 L29.3735482,28.1305429 L22.0220081,23.8227952 L22.0220081,23.8554622 Z M2.43966346,23.8554622 L9.79114907,19.515084 L9.79114907,28.1305429 L2.43966346,23.8554622 Z M1.62644122,13.8368152 L8.97794137,18.1118594 L1.62644122,22.4195706 L1.62644122,13.8368152 Z M21.2087641,13.8368152 L28.5603405,18.1445265 L21.2087641,22.4522377 L21.2087641,13.8694823 L21.2087641,13.8368152 Z M11.4176008,18.6013547 L19.5823487,13.8368152 L19.5823487,23.3985611 L11.4176008,28.1632099 L11.4176008,18.6013547 Z M2.43966346,12.3682201 L19.5498233,2.34965335 L19.5498233,11.9113919 L10.5718677,17.1654266 L2.43966346,12.3682201 Z M20.2979802,0 C20.2979802,0 20.2003676,0.032598137 20.1353168,0.0652320037 L0.715588258,11.4871579 C0.292714436,11.7482026 0,12.2051037 0,12.727266 L0,23.4964529 C0,24.0185787 0.260185401,24.4754798 0.715588258,24.736561 L9.79114907,30.0559297 L9.79114907,41.2493142 C9.79114907,41.6408813 10.083914,41.9671871 10.4742552,42 C10.6043568,42 10.7670201,42 10.8646327,41.901926 L30.2843685,30.5127579 C30.7397605,30.2516768 31,29.794885 31,29.2727227 L31,18.5034629 C31,17.9813006 30.7397605,17.5243995 30.2843685,17.2633548 L21.2087641,11.944059 L21.2087641,0.750517682 C21.2087641,0.424179015 21.0135753,0.130467289 20.688285,0.0325660533 L20.2979802,0.0325660533 L20.2979802,0 Z" id="Shape"></path>
    </g>
  </g>
</svg>
